<?xml version="1.0" standalone="no"?>
<!DOCTYPE svg PUBLIC "-//W3C//DTD SVG 20010904//EN"
 "http://www.w3.org/TR/2001/REC-SVG-20010904/DTD/svg10.dtd">
<svg version="1.0" xmlns="http://www.w3.org/2000/svg"
 width="316.000000pt" height="316.000000pt" viewBox="0 0 316.000000 316.000000"
 preserveAspectRatio="xMidYMid meet">
<metadata>
Created by potrace 1.14, written by Peter Selinger 2001-2017
</metadata>
<g transform="translate(0.000000,316.000000) scale(0.100000,-0.100000)"
fill="#000000" stroke="none">
<path d="M2186 3143 c-1 -1 -266 -3 -589 -4 -323 -1 -590 -5 -592 -9 -3 -5 8
-21 23 -38 15 -16 54 -62 85 -101 32 -38 67 -81 80 -95 12 -14 33 -38 46 -53
l24 -28 173 0 c96 0 174 2 174 5 0 7 86 4 99 -4 6 -4 11 -4 11 1 0 4 129 9
288 11 158 2 323 5 367 6 44 1 85 0 92 -2 7 -2 -51 -83 -135 -185 -80 -100
-190 -236 -243 -302 -53 -66 -181 -223 -283 -350 l-186 -230 0 -247 c0 -135 3
-248 8 -250 8 -3 138 -158 552 -653 129 -154 236 -282 240 -285 3 -3 48 -57
100 -120 52 -63 101 -121 108 -128 7 -8 24 -29 38 -48 l26 -34 169 0 c93 0
169 3 169 6 0 3 -9 16 -20 28 -10 11 -68 82 -127 156 -60 74 -194 241 -298
370 -104 129 -317 395 -474 590 -157 195 -289 357 -293 358 -18 8 -4 29 90
141 54 64 181 215 281 336 101 121 195 234 210 250 14 17 48 57 76 90 27 33
52 62 55 65 40 38 620 743 615 748 -3 3 -955 9 -959 5z"/>
<path d="M32 2973 c14 -16 35 -39 46 -53 37 -45 542 -649 727 -870 99 -118
187 -224 197 -235 9 -11 60 -72 114 -135 114 -135 131 -159 118 -168 -5 -4
-34 -38 -64 -77 -30 -38 -59 -75 -65 -81 -5 -6 -21 -25 -35 -43 -14 -18 -32
-40 -41 -49 -8 -10 -39 -48 -69 -87 -30 -38 -57 -72 -60 -75 -3 -3 -41 -50
-85 -105 -44 -55 -90 -111 -101 -125 -12 -14 -88 -108 -170 -210 -81 -102
-229 -286 -329 -410 -100 -124 -184 -231 -189 -237 -6 -10 29 -13 161 -13
l168 0 50 61 c28 34 55 67 60 73 11 11 207 245 555 661 101 121 187 222 190
225 5 5 58 68 177 213 l43 52 0 240 0 241 -73 89 c-113 140 -488 603 -630 780
-149 186 -148 184 -208 255 -25 30 -54 67 -64 83 l-17 27 -216 0 -216 0 26
-27z"/>
</g>
</svg>
